<mxfile host="app.diagrams.net" modified="2023-11-09T20:09:59.003Z" agent="Mozilla/5.0 (Windows NT 10.0; Win64; x64; rv:109.0) Gecko/20100101 Firefox/119.0" etag="eGFJXk0teFhXg5qS8fgJ" version="22.1.0" type="github">
  <diagram name="Página-1" id="solYv3NnFUCxkpZvSuZc">
    <mxGraphModel dx="1050" dy="558" grid="1" gridSize="10" guides="1" tooltips="1" connect="1" arrows="1" fold="1" page="1" pageScale="1" pageWidth="827" pageHeight="1169" math="0" shadow="0">
      <root>
        <mxCell id="0" />
        <mxCell id="1" parent="0" />
        <mxCell id="3KEFNB0oo1mIlQa9ZB38-1" value="Cliente" style="shape=umlActor;verticalLabelPosition=bottom;verticalAlign=top;html=1;outlineConnect=0;" parent="1" vertex="1">
          <mxGeometry x="430" y="310" width="30" height="60" as="geometry" />
        </mxCell>
        <mxCell id="3KEFNB0oo1mIlQa9ZB38-4" value="" style="ellipse;whiteSpace=wrap;html=1;" parent="1" vertex="1">
          <mxGeometry x="680" y="290" width="80" height="50" as="geometry" />
        </mxCell>
        <mxCell id="3KEFNB0oo1mIlQa9ZB38-5" value="Criar Conta" style="text;html=1;strokeColor=none;fillColor=none;align=center;verticalAlign=middle;whiteSpace=wrap;rounded=0;" parent="1" vertex="1">
          <mxGeometry x="690" y="340" width="60" height="30" as="geometry" />
        </mxCell>
        <mxCell id="3KEFNB0oo1mIlQa9ZB38-12" value="" style="ellipse;whiteSpace=wrap;html=1;" parent="1" vertex="1">
          <mxGeometry x="140" y="490" width="80" height="50" as="geometry" />
        </mxCell>
        <mxCell id="3KEFNB0oo1mIlQa9ZB38-13" value="Finalizar Compra" style="text;html=1;strokeColor=none;fillColor=none;align=center;verticalAlign=middle;whiteSpace=wrap;rounded=0;" parent="1" vertex="1">
          <mxGeometry x="150" y="555" width="60" as="geometry" />
        </mxCell>
        <mxCell id="3KEFNB0oo1mIlQa9ZB38-20" value="" style="ellipse;whiteSpace=wrap;html=1;" parent="1" vertex="1">
          <mxGeometry x="320" y="160" width="80" height="50" as="geometry" />
        </mxCell>
        <mxCell id="3KEFNB0oo1mIlQa9ZB38-21" value="Visualizar Produtos Disponíveis" style="text;html=1;strokeColor=none;fillColor=none;align=center;verticalAlign=middle;whiteSpace=wrap;rounded=0;" parent="1" vertex="1">
          <mxGeometry x="330" y="220" width="60" height="30" as="geometry" />
        </mxCell>
        <mxCell id="3KEFNB0oo1mIlQa9ZB38-32" value="" style="ellipse;whiteSpace=wrap;html=1;" parent="1" vertex="1">
          <mxGeometry x="560" y="630" width="80" height="50" as="geometry" />
        </mxCell>
        <mxCell id="3KEFNB0oo1mIlQa9ZB38-33" value="Acessar Conta" style="text;html=1;strokeColor=none;fillColor=none;align=center;verticalAlign=middle;whiteSpace=wrap;rounded=0;" parent="1" vertex="1">
          <mxGeometry x="570" y="680" width="60" height="30" as="geometry" />
        </mxCell>
        <mxCell id="3KEFNB0oo1mIlQa9ZB38-39" value="&lt;div&gt;&amp;lt;&amp;lt;extend&amp;gt;&amp;gt;&lt;/div&gt;" style="html=1;verticalAlign=bottom;labelBackgroundColor=none;endArrow=open;endFill=0;dashed=1;rounded=0;exitX=0.5;exitY=1;exitDx=0;exitDy=0;entryX=1;entryY=0;entryDx=0;entryDy=0;" parent="1" source="3KEFNB0oo1mIlQa9ZB38-5" target="3KEFNB0oo1mIlQa9ZB38-32" edge="1">
          <mxGeometry x="0.1169" y="33" width="160" relative="1" as="geometry">
            <mxPoint x="330" y="400" as="sourcePoint" />
            <mxPoint x="490" y="400" as="targetPoint" />
            <mxPoint as="offset" />
          </mxGeometry>
        </mxCell>
        <mxCell id="3KEFNB0oo1mIlQa9ZB38-50" value="&amp;lt;&amp;lt;extend&amp;gt;&amp;gt;" style="html=1;verticalAlign=bottom;labelBackgroundColor=none;endArrow=open;endFill=0;dashed=1;rounded=0;exitX=0;exitY=0.5;exitDx=0;exitDy=0;entryX=1.025;entryY=0.68;entryDx=0;entryDy=0;entryPerimeter=0;" parent="1" source="3KEFNB0oo1mIlQa9ZB38-32" target="3KEFNB0oo1mIlQa9ZB38-12" edge="1">
          <mxGeometry x="0.1011" y="32" width="160" relative="1" as="geometry">
            <mxPoint x="330" y="450" as="sourcePoint" />
            <mxPoint x="490" y="450" as="targetPoint" />
            <mxPoint as="offset" />
          </mxGeometry>
        </mxCell>
        <mxCell id="3KEFNB0oo1mIlQa9ZB38-51" value="" style="ellipse;whiteSpace=wrap;html=1;" parent="1" vertex="1">
          <mxGeometry x="10" y="230" width="80" height="50" as="geometry" />
        </mxCell>
        <mxCell id="3KEFNB0oo1mIlQa9ZB38-52" value="Escolher Forma de Pagamento" style="text;html=1;strokeColor=none;fillColor=none;align=center;verticalAlign=middle;whiteSpace=wrap;rounded=0;" parent="1" vertex="1">
          <mxGeometry x="20" y="290" width="60" height="30" as="geometry" />
        </mxCell>
        <mxCell id="3KEFNB0oo1mIlQa9ZB38-54" value="" style="endArrow=none;html=1;rounded=0;entryX=1;entryY=1;entryDx=0;entryDy=0;" parent="1" source="3KEFNB0oo1mIlQa9ZB38-1" target="3KEFNB0oo1mIlQa9ZB38-20" edge="1">
          <mxGeometry width="50" height="50" relative="1" as="geometry">
            <mxPoint x="390" y="430" as="sourcePoint" />
            <mxPoint x="440" y="380" as="targetPoint" />
          </mxGeometry>
        </mxCell>
        <mxCell id="3KEFNB0oo1mIlQa9ZB38-58" value="" style="ellipse;whiteSpace=wrap;html=1;" parent="1" vertex="1">
          <mxGeometry x="600" y="190" width="80" height="50" as="geometry" />
        </mxCell>
        <mxCell id="3KEFNB0oo1mIlQa9ZB38-59" value="Agendar Consulta" style="text;html=1;strokeColor=none;fillColor=none;align=center;verticalAlign=middle;whiteSpace=wrap;rounded=0;" parent="1" vertex="1">
          <mxGeometry x="600" y="245" width="60" height="30" as="geometry" />
        </mxCell>
        <mxCell id="3KEFNB0oo1mIlQa9ZB38-60" value="" style="endArrow=none;html=1;rounded=0;exitX=1;exitY=0.3333333333333333;exitDx=0;exitDy=0;exitPerimeter=0;entryX=0.075;entryY=0.72;entryDx=0;entryDy=0;entryPerimeter=0;" parent="1" source="3KEFNB0oo1mIlQa9ZB38-1" target="3KEFNB0oo1mIlQa9ZB38-58" edge="1">
          <mxGeometry width="50" height="50" relative="1" as="geometry">
            <mxPoint x="390" y="380" as="sourcePoint" />
            <mxPoint x="440" y="330" as="targetPoint" />
          </mxGeometry>
        </mxCell>
        <mxCell id="3KEFNB0oo1mIlQa9ZB38-65" value="&amp;lt;&amp;lt;extend&amp;gt;&amp;gt;" style="html=1;verticalAlign=bottom;labelBackgroundColor=none;endArrow=open;endFill=0;dashed=1;rounded=0;exitX=0.363;exitY=0;exitDx=0;exitDy=0;exitPerimeter=0;entryX=1;entryY=1;entryDx=0;entryDy=0;" parent="1" source="3KEFNB0oo1mIlQa9ZB38-32" target="3KEFNB0oo1mIlQa9ZB38-58" edge="1">
          <mxGeometry x="0.0731" y="-24" width="160" relative="1" as="geometry">
            <mxPoint x="330" y="380" as="sourcePoint" />
            <mxPoint x="490" y="380" as="targetPoint" />
            <mxPoint as="offset" />
          </mxGeometry>
        </mxCell>
        <mxCell id="3KEFNB0oo1mIlQa9ZB38-66" value="" style="endArrow=none;html=1;rounded=0;exitX=0;exitY=0.5;exitDx=0;exitDy=0;" parent="1" source="3KEFNB0oo1mIlQa9ZB38-4" target="3KEFNB0oo1mIlQa9ZB38-1" edge="1">
          <mxGeometry width="50" height="50" relative="1" as="geometry">
            <mxPoint x="390" y="400" as="sourcePoint" />
            <mxPoint x="440" y="350" as="targetPoint" />
          </mxGeometry>
        </mxCell>
        <mxCell id="3KEFNB0oo1mIlQa9ZB38-67" value="" style="endArrow=none;html=1;rounded=0;exitX=1;exitY=0.5;exitDx=0;exitDy=0;" parent="1" source="3KEFNB0oo1mIlQa9ZB38-51" target="3KEFNB0oo1mIlQa9ZB38-1" edge="1">
          <mxGeometry width="50" height="50" relative="1" as="geometry">
            <mxPoint x="390" y="470" as="sourcePoint" />
            <mxPoint x="440" y="420" as="targetPoint" />
          </mxGeometry>
        </mxCell>
        <mxCell id="3KEFNB0oo1mIlQa9ZB38-68" value="" style="ellipse;whiteSpace=wrap;html=1;" parent="1" vertex="1">
          <mxGeometry x="350" y="410" width="80" height="50" as="geometry" />
        </mxCell>
        <mxCell id="3KEFNB0oo1mIlQa9ZB38-69" value="Acompanhar Pedidos" style="text;html=1;strokeColor=none;fillColor=none;align=center;verticalAlign=middle;whiteSpace=wrap;rounded=0;" parent="1" vertex="1">
          <mxGeometry x="360" y="463.2" width="60" height="30" as="geometry" />
        </mxCell>
        <mxCell id="3KEFNB0oo1mIlQa9ZB38-70" value="" style="endArrow=none;html=1;rounded=0;exitX=0.775;exitY=0.06;exitDx=0;exitDy=0;exitPerimeter=0;" parent="1" source="3KEFNB0oo1mIlQa9ZB38-68" target="3KEFNB0oo1mIlQa9ZB38-1" edge="1">
          <mxGeometry width="50" height="50" relative="1" as="geometry">
            <mxPoint x="410" y="420" as="sourcePoint" />
            <mxPoint x="440" y="420" as="targetPoint" />
          </mxGeometry>
        </mxCell>
        <mxCell id="3KEFNB0oo1mIlQa9ZB38-71" value="&amp;lt;&amp;lt;extend&amp;gt;&amp;gt;" style="html=1;verticalAlign=bottom;labelBackgroundColor=none;endArrow=open;endFill=0;dashed=1;rounded=0;exitX=0.013;exitY=0.24;exitDx=0;exitDy=0;exitPerimeter=0;entryX=0.963;entryY=0.9;entryDx=0;entryDy=0;entryPerimeter=0;" parent="1" source="3KEFNB0oo1mIlQa9ZB38-32" target="3KEFNB0oo1mIlQa9ZB38-68" edge="1">
          <mxGeometry x="-0.0176" y="-18" width="160" relative="1" as="geometry">
            <mxPoint x="330" y="450" as="sourcePoint" />
            <mxPoint x="490" y="450" as="targetPoint" />
            <mxPoint as="offset" />
          </mxGeometry>
        </mxCell>
        <mxCell id="3KEFNB0oo1mIlQa9ZB38-78" value="" style="endArrow=none;html=1;rounded=0;entryX=1;entryY=1;entryDx=0;entryDy=0;entryPerimeter=0;exitX=0.263;exitY=0.1;exitDx=0;exitDy=0;exitPerimeter=0;" parent="1" source="3KEFNB0oo1mIlQa9ZB38-32" target="3KEFNB0oo1mIlQa9ZB38-1" edge="1">
          <mxGeometry width="50" height="50" relative="1" as="geometry">
            <mxPoint x="390" y="500" as="sourcePoint" />
            <mxPoint x="440" y="450" as="targetPoint" />
          </mxGeometry>
        </mxCell>
        <mxCell id="3KEFNB0oo1mIlQa9ZB38-82" value="" style="ellipse;whiteSpace=wrap;html=1;" parent="1" vertex="1">
          <mxGeometry x="180" y="190" width="80" height="50" as="geometry" />
        </mxCell>
        <mxCell id="3KEFNB0oo1mIlQa9ZB38-83" value="Montar Carrinho" style="text;html=1;strokeColor=none;fillColor=none;align=center;verticalAlign=middle;whiteSpace=wrap;rounded=0;" parent="1" vertex="1">
          <mxGeometry x="190" y="260" width="60" as="geometry" />
        </mxCell>
        <mxCell id="3KEFNB0oo1mIlQa9ZB38-85" value="&amp;lt;&amp;lt;extend&amp;gt;&amp;gt;" style="html=1;verticalAlign=bottom;labelBackgroundColor=none;endArrow=open;endFill=0;dashed=1;rounded=0;exitX=0;exitY=1;exitDx=0;exitDy=0;entryX=0.725;entryY=0.02;entryDx=0;entryDy=0;entryPerimeter=0;" parent="1" source="3KEFNB0oo1mIlQa9ZB38-82" target="3KEFNB0oo1mIlQa9ZB38-12" edge="1">
          <mxGeometry x="0.2226" y="24" width="160" relative="1" as="geometry">
            <mxPoint x="330" y="480" as="sourcePoint" />
            <mxPoint x="490" y="480" as="targetPoint" />
            <mxPoint as="offset" />
          </mxGeometry>
        </mxCell>
        <mxCell id="3KEFNB0oo1mIlQa9ZB38-86" value="" style="endArrow=none;html=1;rounded=0;exitX=1.025;exitY=0.74;exitDx=0;exitDy=0;exitPerimeter=0;" parent="1" source="3KEFNB0oo1mIlQa9ZB38-82" edge="1">
          <mxGeometry width="50" height="50" relative="1" as="geometry">
            <mxPoint x="390" y="500" as="sourcePoint" />
            <mxPoint x="420" y="320" as="targetPoint" />
          </mxGeometry>
        </mxCell>
        <mxCell id="3KEFNB0oo1mIlQa9ZB38-87" value="&amp;lt;&amp;lt;include&amp;gt;&amp;gt;" style="html=1;verticalAlign=bottom;labelBackgroundColor=none;endArrow=open;endFill=0;dashed=1;rounded=0;exitX=0;exitY=0;exitDx=0;exitDy=0;entryX=1;entryY=1;entryDx=0;entryDy=0;" parent="1" source="3KEFNB0oo1mIlQa9ZB38-12" target="3KEFNB0oo1mIlQa9ZB38-51" edge="1">
          <mxGeometry x="0.0255" y="25" width="160" relative="1" as="geometry">
            <mxPoint x="330" y="430" as="sourcePoint" />
            <mxPoint x="490" y="430" as="targetPoint" />
            <mxPoint as="offset" />
          </mxGeometry>
        </mxCell>
        <mxCell id="3KEFNB0oo1mIlQa9ZB38-88" value="" style="endArrow=none;html=1;rounded=0;exitX=1;exitY=0;exitDx=0;exitDy=0;" parent="1" source="3KEFNB0oo1mIlQa9ZB38-12" edge="1">
          <mxGeometry width="50" height="50" relative="1" as="geometry">
            <mxPoint x="390" y="450" as="sourcePoint" />
            <mxPoint x="420" y="350" as="targetPoint" />
          </mxGeometry>
        </mxCell>
        <mxCell id="3KEFNB0oo1mIlQa9ZB38-89" value="" style="ellipse;whiteSpace=wrap;html=1;" parent="1" vertex="1">
          <mxGeometry x="460" y="145" width="80" height="50" as="geometry" />
        </mxCell>
        <mxCell id="3KEFNB0oo1mIlQa9ZB38-90" value="&lt;div&gt;Visualizar Clínicas Disponíveis&lt;/div&gt;" style="text;html=1;strokeColor=none;fillColor=none;align=center;verticalAlign=middle;whiteSpace=wrap;rounded=0;" parent="1" vertex="1">
          <mxGeometry x="470" y="200" width="60" height="30" as="geometry" />
        </mxCell>
        <mxCell id="3KEFNB0oo1mIlQa9ZB38-92" value="" style="endArrow=none;html=1;rounded=0;entryX=0;entryY=0.72;entryDx=0;entryDy=0;entryPerimeter=0;exitX=0.5;exitY=0;exitDx=0;exitDy=0;exitPerimeter=0;" parent="1" source="3KEFNB0oo1mIlQa9ZB38-1" target="3KEFNB0oo1mIlQa9ZB38-89" edge="1">
          <mxGeometry width="50" height="50" relative="1" as="geometry">
            <mxPoint x="390" y="450" as="sourcePoint" />
            <mxPoint x="440" y="400" as="targetPoint" />
          </mxGeometry>
        </mxCell>
      </root>
    </mxGraphModel>
  </diagram>
</mxfile>
